<svg xmlns="http://www.w3.org/2000/svg" xmlns:xlink="http://www.w3.org/1999/xlink" width="1024" zoomAndPan="magnify" viewBox="0 0 768 767.999994" height="1024" preserveAspectRatio="xMidYMid meet" version="1.0"><defs><g/><clipPath id="519e46374e"><path d="M 60.785156 7.898438 L 708.785156 7.898438 L 708.785156 761.640625 L 60.785156 761.640625 Z M 60.785156 7.898438 " clip-rule="nonzero"/></clipPath><clipPath id="b3b34e3a75"><path d="M 384.785156 7.898438 L 708.785156 196.335938 L 708.785156 573.207031 L 384.785156 761.640625 L 60.785156 573.207031 L 60.785156 196.335938 Z M 384.785156 7.898438 " clip-rule="nonzero"/></clipPath></defs><g clip-path="url(#519e46374e)"><g clip-path="url(#b3b34e3a75)"><path stroke-linecap="butt" transform="matrix(0.750258, 0, 0, 0.749965, 60.784442, 7.898583)" fill="none" stroke-linejoin="miter" d="M 431.852582 -0.000193435 L 863.704212 251.261534 L 863.704212 753.77978 L 431.852582 1005.036298 L 0.000951483 753.77978 L 0.000951483 251.261534 Z M 431.852582 -0.000193435 " stroke="#59fefe" stroke-width="60" stroke-opacity="1" stroke-miterlimit="4"/></g></g><g fill="#59fefe" fill-opacity="1"><g transform="translate(138.359265, 490.118786)"><g><path d="M 92.441406 5.28125 C 142.953125 5.28125 176.300781 -29.714844 176.300781 -78.574219 L 176.300781 -231.105469 L 127.109375 -231.105469 L 127.109375 -81.21875 C 127.109375 -57.117188 112.910156 -41.929688 92.441406 -41.929688 C 70.980469 -41.929688 56.785156 -57.445312 56.785156 -81.21875 L 56.785156 -87.160156 L 7.261719 -87.160156 L 7.261719 -78.574219 C 7.261719 -29.714844 42.917969 5.28125 92.441406 5.28125 Z M 92.441406 5.28125 "/></g></g></g><g fill="#59fefe" fill-opacity="1"><g transform="translate(339.420815, 490.118786)"><g><path d="M 19.480469 0 L 70.652344 0 L 70.652344 -51.503906 L 19.480469 -51.503906 Z M 19.480469 0 "/></g></g></g><g fill="#59fefe" fill-opacity="1"><g transform="translate(429.882016, 490.118786)"><g><path d="M 92.441406 5.28125 C 142.953125 5.28125 176.300781 -29.714844 176.300781 -78.574219 L 176.300781 -231.105469 L 127.109375 -231.105469 L 127.109375 -81.21875 C 127.109375 -57.117188 112.910156 -41.929688 92.441406 -41.929688 C 70.980469 -41.929688 56.785156 -57.445312 56.785156 -81.21875 L 56.785156 -87.160156 L 7.261719 -87.160156 L 7.261719 -78.574219 C 7.261719 -29.714844 42.917969 5.28125 92.441406 5.28125 Z M 92.441406 5.28125 "/></g></g></g></svg>